<?xml version="1.0" standalone="no"?>
<!DOCTYPE svg PUBLIC "-//W3C//DTD SVG 20010904//EN"
 "http://www.w3.org/TR/2001/REC-SVG-20010904/DTD/svg10.dtd">
<svg version="1.0" xmlns="http://www.w3.org/2000/svg"
 width="1280.000000pt" height="1280.000000pt" viewBox="0 0 1280.000000 1280.000000"
 preserveAspectRatio="xMidYMid meet">
<metadata>
Created by potrace 1.15, written by Peter Selinger 2001-2017
</metadata>
<g transform="translate(0.000000,1280.000000) scale(0.100000,-0.100000)"
fill="#000000" stroke="none">
<path d="M6907 12305 c-37 -8 -69 -23 -86 -39 -15 -15 -39 -26 -54 -26 -24 0
-134 -30 -182 -50 -11 -5 -29 -11 -40 -14 -27 -8 -78 -93 -81 -136 -7 -86 -11
-95 -45 -118 -38 -25 -88 -81 -89 -98 0 -7 -10 -18 -23 -27 -12 -8 -35 -32
-50 -54 -27 -39 -31 -49 -47 -128 -5 -22 -13 -60 -18 -85 -16 -70 -31 -177
-38 -268 -5 -64 -10 -85 -25 -95 -29 -21 -94 -173 -114 -268 -15 -72 -16 -97
-7 -148 21 -118 91 -221 151 -221 26 0 31 -3 27 -17 -2 -10 -10 -54 -16 -98
-6 -44 -15 -102 -21 -130 -5 -27 -16 -93 -25 -145 -8 -52 -26 -129 -39 -170
-44 -140 -85 -251 -102 -276 -16 -24 -125 -114 -138 -114 -4 0 -19 -8 -33 -19
-15 -10 -165 -89 -333 -174 -406 -207 -486 -255 -546 -333 -15 -20 -46 -53
-67 -73 -22 -20 -74 -70 -115 -112 -83 -83 -110 -100 -189 -119 -62 -14 -183
-90 -227 -142 -16 -19 -48 -59 -70 -88 -22 -29 -62 -77 -90 -106 -27 -29 -75
-95 -106 -146 -100 -168 -225 -459 -243 -568 -8 -50 -27 -110 -35 -110 -21 0
-158 -154 -228 -256 -141 -208 -158 -238 -213 -384 -18 -47 -39 -98 -46 -115
-16 -36 -98 -273 -126 -365 -11 -36 -35 -114 -54 -175 -18 -60 -41 -141 -50
-180 -16 -71 -38 -139 -114 -345 l-42 -115 -1 -160 c-1 -88 2 -252 6 -365 8
-193 12 -244 36 -465 6 -49 13 -115 16 -145 2 -30 7 -84 11 -120 3 -36 8 -68
10 -71 2 -4 11 -40 19 -80 8 -41 26 -110 40 -154 23 -78 47 -210 60 -330 3
-33 9 -87 13 -120 4 -33 7 -87 7 -119 l0 -59 -51 -17 c-28 -10 -59 -22 -70
-28 -10 -6 -48 -22 -83 -37 -71 -29 -188 -117 -255 -192 -94 -106 -169 -242
-201 -366 -9 -34 -21 -80 -27 -102 -5 -22 -10 -89 -10 -150 1 -235 85 -432
255 -598 83 -80 90 -85 198 -139 47 -24 72 -44 90 -72 13 -21 61 -73 107 -115
96 -90 221 -159 347 -191 100 -26 286 -29 390 -6 289 63 543 272 679 558 20
42 36 83 36 90 0 8 4 18 9 24 5 5 16 46 25 92 20 105 21 299 1 396 -60 289
-265 519 -545 613 -63 21 -92 36 -114 61 -29 33 -185 142 -204 142 -13 0 -16
10 -37 120 -22 112 -27 213 -21 384 4 104 8 191 10 195 2 3 7 49 10 101 4 52
16 154 26 225 11 72 22 146 24 166 3 19 12 67 20 105 31 139 34 183 35 464 2
491 28 594 171 691 78 53 200 165 200 185 0 6 10 19 21 30 44 39 166 223 270
406 105 185 238 405 281 463 24 33 49 69 55 80 11 19 12 19 22 -8 6 -16 11
-33 11 -38 0 -42 159 -315 265 -456 l32 -42 9 -353 c13 -509 12 -525 -61 -783
-31 -109 -34 -131 -41 -310 -3 -77 -10 -149 -15 -160 -13 -28 -39 -173 -39
-216 0 -20 -9 -62 -21 -95 -11 -32 -23 -72 -26 -89 -3 -16 -9 -34 -13 -40 -7
-9 -18 -94 -26 -190 -6 -71 -17 -136 -25 -141 -5 -3 -9 -16 -9 -30 0 -13 -13
-75 -29 -137 -16 -61 -32 -141 -35 -176 -4 -35 -13 -73 -21 -84 -10 -14 -11
-25 -3 -42 7 -15 7 -29 0 -41 -6 -11 -13 -98 -17 -194 -3 -96 -8 -200 -10
-230 -2 -30 -7 -221 -11 -425 -3 -203 -7 -372 -9 -375 -1 -3 1 -156 6 -340 8
-349 25 -587 66 -945 3 -33 6 -71 5 -85 0 -14 3 -41 8 -60 5 -19 14 -78 20
-130 6 -52 12 -106 15 -120 15 -98 35 -246 41 -305 4 -38 8 -77 9 -85 2 -8 8
-60 14 -115 6 -55 14 -124 17 -152 l7 -53 603 0 604 0 1 23 c0 12 3 33 5 47 2
14 8 115 14 225 8 173 20 310 36 420 3 17 8 64 13 105 5 41 18 109 30 150 25
83 39 137 70 255 11 44 34 131 51 192 35 128 33 120 59 268 11 61 23 126 26
145 12 64 45 245 50 265 13 58 34 200 40 267 l7 78 33 0 c37 0 29 23 71 -220
15 -92 41 -233 48 -266 55 -261 188 -693 312 -1016 58 -151 73 -195 89 -268 2
-8 9 -37 15 -65 6 -27 27 -124 46 -215 19 -91 36 -172 39 -180 14 -56 35 -169
35 -187 l0 -23 634 0 634 0 7 63 c10 92 34 223 55 297 10 36 21 81 24 100 3
19 9 46 12 60 32 143 51 811 35 1240 -11 292 -23 478 -35 565 -3 17 -9 64 -15
105 -14 102 -28 175 -53 280 -5 25 -12 94 -14 153 -2 60 -7 114 -11 120 -4 7
-8 19 -8 27 0 8 -3 20 -7 26 -4 6 -10 66 -14 133 -6 102 -10 123 -25 131 -41
22 -34 48 33 113 34 34 105 115 157 179 52 64 107 122 121 128 21 9 43 8 89
-1 33 -6 81 -9 105 -7 91 11 209 92 271 187 24 36 120 146 213 244 131 137
191 209 259 310 48 73 99 145 112 160 26 29 44 57 111 175 22 40 63 106 89
147 57 86 220 414 282 565 23 58 62 137 85 175 109 184 151 268 171 342 9 35
9 227 1 268 -14 66 -30 142 -39 183 -5 24 -11 47 -14 52 -3 5 -14 42 -25 82
-35 133 -76 226 -174 396 -39 68 -88 156 -109 195 -131 246 -226 364 -487 607
-129 120 -139 135 -172 253 -24 87 -48 134 -141 277 -42 63 -102 155 -134 205
-68 105 -300 342 -384 392 -58 35 -79 43 -264 99 -121 37 -177 61 -295 126
-36 20 -81 39 -100 43 -19 4 -55 20 -80 35 -57 34 -153 79 -290 135 -235 96
-455 208 -489 249 -13 15 -11 58 9 149 8 39 20 59 63 102 53 52 100 135 156
277 14 34 34 64 49 74 58 38 114 101 143 160 26 52 32 79 39 170 5 77 13 122
28 154 12 25 22 51 22 58 0 15 43 114 66 152 9 14 35 66 60 116 35 73 45 105
50 165 3 41 7 88 9 105 2 17 -1 51 -6 75 -5 28 -4 57 3 78 9 28 7 37 -9 60
-11 14 -26 44 -33 66 -7 22 -16 50 -21 63 -5 13 -9 31 -9 40 0 35 -22 92 -46
121 -14 17 -27 38 -29 49 -9 49 -35 92 -55 92 -11 0 -32 11 -46 25 -14 14 -32
25 -40 25 -9 0 -18 8 -21 18 -2 10 -18 24 -34 31 -17 7 -33 21 -36 30 -4 9
-19 35 -35 59 -32 46 -63 63 -173 93 -38 11 -79 24 -90 29 -20 8 -100 23 -200
35 -27 4 -75 13 -105 21 -61 16 -55 16 -133 -1z m-365 -193 c-7 -2 -10 -8 -7
-12 3 -5 1 -11 -5 -15 -11 -7 -13 5 -4 29 3 9 11 13 17 9 8 -5 7 -8 -1 -11z
m2076 -4825 c29 -31 52 -61 52 -65 0 -5 8 -17 18 -28 9 -10 37 -44 60 -74 24
-30 68 -77 99 -103 31 -27 84 -86 117 -131 34 -46 81 -109 106 -140 25 -32 54
-74 66 -94 11 -21 29 -41 40 -47 11 -5 66 -52 122 -104 56 -52 109 -99 119
-104 55 -30 173 -162 173 -194 0 -12 -59 -135 -136 -283 -21 -41 -45 -91 -53
-110 -8 -19 -27 -62 -41 -95 -51 -113 -97 -266 -135 -440 -9 -44 -21 -93 -25
-110 -5 -16 -11 -57 -15 -90 -8 -68 -13 -79 -94 -207 -32 -51 -73 -122 -91
-158 -18 -36 -38 -72 -45 -80 -7 -8 -36 -60 -65 -116 -45 -86 -59 -105 -99
-129 -62 -38 -121 -43 -189 -16 -29 12 -64 21 -77 21 -13 0 -60 14 -105 30
-45 17 -95 30 -112 30 -34 0 -98 27 -103 44 -2 6 -14 50 -26 99 -19 73 -26 89
-48 100 -35 17 -67 111 -64 187 9 181 10 373 3 410 -17 92 -33 309 -32 455 0
149 1 152 43 280 23 72 42 132 41 135 -1 3 6 15 14 28 8 12 13 22 10 22 -12 0
31 122 99 280 161 375 196 489 231 734 2 15 16 55 30 87 31 68 30 68 112 -24z
m-132 -3472 c16 -25 16 -27 -16 -67 -18 -22 -49 -70 -69 -106 -20 -36 -42 -67
-49 -70 -11 -3 -11 -1 -1 17 11 16 11 23 1 33 -14 14 -16 68 -2 68 6 0 10 10
10 21 0 22 84 129 101 129 4 0 16 -11 25 -25z"/>
</g>
</svg>
